Start = 10.000000, duration = 60, magnitude = 1000.000000, direction = 180
datacolumns 10
datarows 183
range 18.81667074 18.91024079
endheader
time	ground_force1_vx	ground_force1_vy	ground_force1_vz	ground_force1_px	ground_force1_py	ground_force1_pz	ground_torque1_x	ground_torque1_y	ground_torque1_z
18.81667074	-724.8591352	8.876964197e-14	0	0	0	0	0	0	0
18.81669904	-724.8935178	8.877385262e-14	0	0	0	0	0	0	0
18.81684055	-725.0654035	8.879490256e-14	0	0	0	0	0	0	0
18.81754808	-725.9241549	8.890006927e-14	0	0	0	0	0	0	0
18.81825561	-726.781776	8.900509757e-14	0	0	0	0	0	0	0
18.81896315	-727.6382656	8.910998729e-14	0	0	0	0	0	0	0
18.81967068	-728.4936223	8.921473828e-14	0	0	0	0	0	0	0
18.82	-728.8913597	8.926344706e-14	0	0	0	0	0	0	0
18.82000173	-728.8934507	8.926370313e-14	0	0	0	0	0	0	0
18.82000346	-728.8955416	8.926395919e-14	0	0	0	0	0	0	0
18.82001212	-728.9059961	8.926523951e-14	0	0	0	0	0	0	0
18.82005542	-728.9582663	8.927164075e-14	0	0	0	0	0	0	0
18.82027189	-729.2195533	8.930363918e-14	0	0	0	0	0	0	0
18.82065985	-729.6875522	8.936095252e-14	0	0	0	0	0	0	0
18.8210478	-730.1552096	8.941822404e-14	0	0	0	0	0	0	0
18.82156573	-730.7790146	8.949461812e-14	0	0	0	0	0	0	0
18.82208367	-731.4022099	8.957093753e-14	0	0	0	0	0	0	0
18.82272646	-732.1747931	8.966555167e-14	0	0	0	0	0	0	0
18.82349913	-733.1022367	8.977913076e-14	0	0	0	0	0	0	0
18.82450211	-734.3040867	8.992631494e-14	0	0	0	0	0	0	0
18.82524093	-735.1879358	9.003455523e-14	0	0	0	0	0	0	0
18.82597976	-736.0705367	9.014264268e-14	0	0	0	0	0	0	0
18.82671858	-736.9518881	9.025057709e-14	0	0	0	0	0	0	0
18.82731659	-737.664343	9.033782764e-14	0	0	0	0	0	0	0
18.82808088	-738.5737033	9.044919216e-14	0	0	0	0	0	0	0
18.82884516	-739.4817218	9.056039236e-14	0	0	0	0	0	0	0
18.82960945	-740.3883969	9.067142804e-14	0	0	0	0	0	0	0
18.83	-740.8511893	9.072810377e-14	0	0	0	0	0	0	0
18.83000138	-740.8528231	9.072830385e-14	0	0	0	0	0	0	0
18.83000276	-740.8544569	9.072850392e-14	0	0	0	0	0	0	0
18.83000965	-740.8626256	9.07295043e-14	0	0	0	0	0	0	0
18.83004414	-740.9034675	9.0734506e-14	0	0	0	0	0	0	0
18.83021654	-741.1076362	9.075950945e-14	0	0	0	0	0	0	0
18.83063685	-741.6050825	9.082042906e-14	0	0	0	0	0	0	0
18.83114307	-742.2036824	9.089373639e-14	0	0	0	0	0	0	0
18.83179701	-742.9760613	9.098832553e-14	0	0	0	0	0	0	0
18.83262283	-743.9500628	9.110760631e-14	0	0	0	0	0	0	0
18.83345925	-744.9349384	9.122821879e-14	0	0	0	0	0	0	0
18.83429566	-745.9181932	9.134863277e-14	0	0	0	0	0	0	0
18.83513207	-746.899825	9.1468848e-14	0	0	0	0	0	0	0
18.83587068	-747.7653198	9.157484054e-14	0	0	0	0	0	0	0
18.83660929	-748.6295459	9.168067771e-14	0	0	0	0	0	0	0
18.83734789	-749.4925017	9.178635933e-14	0	0	0	0	0	0	0
18.8380865	-750.354186	9.189188521e-14	0	0	0	0	0	0	0
18.83882511	-751.214597	9.199725517e-14	0	0	0	0	0	0	0
18.83956372	-752.0737335	9.210246905e-14	0	0	0	0	0	0	0
18.84	-752.5806115	9.216454369e-14	0	0	0	0	0	0	0
18.84000177	-752.5826675	9.216479549e-14	0	0	0	0	0	0	0
18.84000354	-752.5847236	9.216504729e-14	0	0	0	0	0	0	0
18.84001239	-752.5950039	9.216630626e-14	0	0	0	0	0	0	0
18.84005666	-752.6464025	9.217260077e-14	0	0	0	0	0	0	0
18.84027797	-752.9033266	9.220406489e-14	0	0	0	0	0	0	0
18.84099419	-753.7340021	9.23057933e-14	0	0	0	0	0	0	0
18.84159329	-754.4279298	9.239077494e-14	0	0	0	0	0	0	0
18.8421924	-755.1210153	9.247565343e-14	0	0	0	0	0	0	0
18.84303374	-756.0929045	9.259467554e-14	0	0	0	0	0	0	0
18.8438512	-757.0356202	9.271012491e-14	0	0	0	0	0	0	0
18.84466867	-757.9767625	9.282538161e-14	0	0	0	0	0	0	0
18.84548613	-758.9163295	9.294044538e-14	0	0	0	0	0	0	0
18.84630359	-759.8543193	9.305531599e-14	0	0	0	0	0	0	0
18.84712106	-760.7907298	9.31699932e-14	0	0	0	0	0	0	0
18.84793852	-761.7255591	9.328447678e-14	0	0	0	0	0	0	0
18.84875598	-762.6588053	9.339876648e-14	0	0	0	0	0	0	0
18.8495627	-763.5782332	9.351136392e-14	0	0	0	0	0	0	0
18.85	-764.0759782	9.35723201e-14	0	0	0	0	0	0	0
18.85000136	-764.0775311	9.357251027e-14	0	0	0	0	0	0	0
18.85000273	-764.0790839	9.357270044e-14	0	0	0	0	0	0	0
18.85000955	-764.0868482	9.357365129e-14	0	0	0	0	0	0	0
18.85004368	-764.1256678	9.357840533e-14	0	0	0	0	0	0	0
18.85021429	-764.3197245	9.360217042e-14	0	0	0	0	0	0	0
18.85086185	-765.0556319	9.369229307e-14	0	0	0	0	0	0	0
18.85150941	-765.7905414	9.378229354e-14	0	0	0	0	0	0	0
18.85215696	-766.5244523	9.38721717e-14	0	0	0	0	0	0	0
18.85307703	-767.5654969	9.399966289e-14	0	0	0	0	0	0	0
18.85399711	-768.6045206	9.412690659e-14	0	0	0	0	0	0	0
18.85477307	-769.4792377	9.423402855e-14	0	0	0	0	0	0	0
18.85554904	-770.3525139	9.434097403e-14	0	0	0	0	0	0	0
18.85632501	-771.2243474	9.444774285e-14	0	0	0	0	0	0	0
18.8569282	-771.9010608	9.453061634e-14	0	0	0	0	0	0	0
18.85753139	-772.5769007	9.461338285e-14	0	0	0	0	0	0	0
18.85834723	-773.4896079	9.472515725e-14	0	0	0	0	0	0	0
18.85916307	-774.4007139	9.483673555e-14	0	0	0	0	0	0	0
18.8599789	-775.3102168	9.494811753e-14	0	0	0	0	0	0	0
18.86	-775.3337145	9.495099517e-14	0	0	0	0	0	0	0
18.86000142	-775.3352994	9.495118926e-14	0	0	0	0	0	0	0
18.86000285	-775.3368842	9.495138335e-14	0	0	0	0	0	0	0
18.86000996	-775.3448086	9.495235381e-14	0	0	0	0	0	0	0
18.86004554	-775.3844284	9.495720584e-14	0	0	0	0	0	0	0
18.86022341	-775.582482	9.498146041e-14	0	0	0	0	0	0	0
18.86061879	-776.0224415	9.503533991e-14	0	0	0	0	0	0	0
18.86101416	-776.4620238	9.508917321e-14	0	0	0	0	0	0	0
18.86160501	-777.1182223	9.516953435e-14	0	0	0	0	0	0	0
18.86231691	-777.9077545	9.526622416e-14	0	0	0	0	0	0	0
18.86320448	-778.8903867	9.538656189e-14	0	0	0	0	0	0	0
18.86409205	-779.8711105	9.550666592e-14	0	0	0	0	0	0	0
18.86476788	-780.616583	9.559795997e-14	0	0	0	0	0	0	0
18.8654437	-781.3609466	9.568911822e-14	0	0	0	0	0	0	0
18.86611952	-782.1042003	9.578014055e-14	0	0	0	0	0	0	0
18.86679534	-782.846343	9.587102682e-14	0	0	0	0	0	0	0
18.86760671	-783.7358646	9.59799618e-14	0	0	0	0	0	0	0
18.86841808	-784.6237816	9.608870026e-14	0	0	0	0	0	0	0
18.86922945	-785.510092	9.619724199e-14	0	0	0	0	0	0	0
18.87	-786.3503191	9.630014012e-14	0	0	0	0	0	0	0
18.87000129	-786.3517252	9.630031233e-14	0	0	0	0	0	0	0
18.87000258	-786.3531314	9.630048454e-14	0	0	0	0	0	0	0
18.87000903	-786.3601623	9.630134557e-14	0	0	0	0	0	0	0
18.8700413	-786.3953151	9.630565055e-14	0	0	0	0	0	0	0
18.87020264	-786.5710409	9.632717075e-14	0	0	0	0	0	0	0
18.87071266	-787.1261381	9.639515056e-14	0	0	0	0	0	0	0
18.87122269	-787.6805985	9.646305237e-14	0	0	0	0	0	0	0
18.87192312	-788.4410102	9.655617595e-14	0	0	0	0	0	0	0
18.87283584	-789.4300935	9.667730371e-14	0	0	0	0	0	0	0
18.87374857	-790.4171314	9.6798181e-14	0	0	0	0	0	0	0
18.87452003	-791.2498118	9.690015493e-14	0	0	0	0	0	0	0
18.8752915	-792.0810276	9.700194951e-14	0	0	0	0	0	0	0
18.87606296	-792.9107772	9.710356453e-14	0	0	0	0	0	0	0
18.87683443	-793.7390591	9.720499981e-14	0	0	0	0	0	0	0
18.8776059	-794.5658718	9.730625516e-14	0	0	0	0	0	0	0
18.87803658	-795.0268106	9.736270388e-14	0	0	0	0	0	0	0
18.87846726	-795.4872907	9.741909643e-14	0	0	0	0	0	0	0
18.879267	-796.3411571	9.752366491e-14	0	0	0	0	0	0	0
18.88	-797.1223658	9.761933538e-14	0	0	0	0	0	0	0
18.88000143	-797.123891	9.761952216e-14	0	0	0	0	0	0	0
18.88000286	-797.1254162	9.761970894e-14	0	0	0	0	0	0	0
18.88001003	-797.133042	9.762064284e-14	0	0	0	0	0	0	0
18.88004583	-797.1711695	9.762531211e-14	0	0	0	0	0	0	0
18.88022487	-797.3617591	9.76486526e-14	0	0	0	0	0	0	0
18.88078517	-797.9577058	9.772163503e-14	0	0	0	0	0	0	0
18.88134548	-798.5528734	9.779452204e-14	0	0	0	0	0	0	0
18.88218067	-799.4385806	9.790298988e-14	0	0	0	0	0	0	0
18.88301586	-800.3225534	9.801124534e-14	0	0	0	0	0	0	0
18.88385104	-801.2047901	9.811928816e-14	0	0	0	0	0	0	0
18.88451929	-801.9094279	9.820558141e-14	0	0	0	0	0	0	0
18.88518753	-802.6129521	9.829173827e-14	0	0	0	0	0	0	0
18.88585578	-803.3153615	9.837775862e-14	0	0	0	0	0	0	0
18.88652402	-804.0166553	9.846364234e-14	0	0	0	0	0	0	0
18.88719227	-804.7168325	9.854938931e-14	0	0	0	0	0	0	0
18.88786052	-805.415892	9.863499941e-14	0	0	0	0	0	0	0
18.88852876	-806.113833	9.872047253e-14	0	0	0	0	0	0	0
18.88919701	-806.8106544	9.880580854e-14	0	0	0	0	0	0	0
18.89	-807.6465045	9.890817065e-14	0	0	0	0	0	0	0
18.89000135	-807.6479033	9.890834196e-14	0	0	0	0	0	0	0
18.89000269	-807.6493021	9.890851326e-14	0	0	0	0	0	0	0
18.89000942	-807.656296	9.890936977e-14	0	0	0	0	0	0	0
18.89004304	-807.6912641	9.891365213e-14	0	0	0	0	0	0	0
18.89021119	-807.866062	9.893505869e-14	0	0	0	0	0	0	0
18.89105189	-808.7389853	9.904196097e-14	0	0	0	0	0	0	0
18.8918926	-809.6101309	9.914864554e-14	0	0	0	0	0	0	0
18.89278195	-810.5297449	9.926126577e-14	0	0	0	0	0	0	0
18.8936713	-811.447365	9.937364183e-14	0	0	0	0	0	0	0
18.89440722	-812.2051676	9.946644587e-14	0	0	0	0	0	0	0
18.89514314	-812.9616021	9.955908238e-14	0	0	0	0	0	0	0
18.89587906	-813.7166673	9.96515512e-14	0	0	0	0	0	0	0
18.89661497	-814.4703619	9.974385217e-14	0	0	0	0	0	0	0
18.8971524	-815.0198997	9.981115114e-14	0	0	0	0	0	0	0
18.89768982	-815.5687055	9.987836046e-14	0	0	0	0	0	0	0
18.89819639	-816.0853349	9.994162933e-14	0	0	0	0	0	0	0
18.89870296	-816.6013131	1.000048184e-13	0	0	0	0	0	0	0
18.89936894	-817.2786667	1.000877703e-13	0	0	0	0	0	0	0
18.9	-817.9194621	1.001662451e-13	0	0	0	0	0	0	0
18.90000136	-817.9208416	1.001664141e-13	0	0	0	0	0	0	0
18.90000272	-817.9222212	1.00166583e-13	0	0	0	0	0	0	0
18.90000952	-817.9291188	1.001674277e-13	0	0	0	0	0	0	0
18.90004351	-817.9636054	1.001716511e-13	0	0	0	0	0	0	0
18.90021347	-818.135994	1.001927626e-13	0	0	0	0	0	0	0
18.90106326	-818.9968341	1.002981851e-13	0	0	0	0	0	0	0
18.90191304	-819.8558349	1.004033824e-13	0	0	0	0	0	0	0
18.90276283	-820.7129943	1.005083541e-13	0	0	0	0	0	0	0
18.90352562	-821.4808271	1.006023865e-13	0	0	0	0	0	0	0
18.90428841	-822.2471733	1.006962369e-13	0	0	0	0	0	0	0
18.90505119	-823.0120316	1.00789905e-13	0	0	0	0	0	0	0
18.90581398	-823.7754005	1.008833907e-13	0	0	0	0	0	0	0
18.90657677	-824.5372788	1.009766939e-13	0	0	0	0	0	0	0
18.90733955	-825.297665	1.010698144e-13	0	0	0	0	0	0	0
18.90810234	-826.0565577	1.011627519e-13	0	0	0	0	0	0	0
18.90886513	-826.8139555	1.012555064e-13	0	0	0	0	0	0	0
18.90962791	-827.5698572	1.013480777e-13	0	0	0	0	0	0	0
18.91	-827.9380437	1.013931675e-13	0	0	0	0	0	0	0
18.91000153	-827.9395605	1.013933533e-13	0	0	0	0	0	0	0
18.91000307	-827.9410774	1.01393539e-13	0	0	0	0	0	0	0
18.91001074	-827.9486615	1.013944678e-13	0	0	0	0	0	0	0
18.91004908	-827.98658	1.013991115e-13	0	0	0	0	0	0	0
18.91024079	-828.1761154	1.014223229e-13	0	0	0	0	0	0	0
